<?xml version="1.0" encoding="utf-8"?>
<!-- Generator: Adobe Illustrator 22.1.0, SVG Export Plug-In . SVG Version: 6.00 Build 0)  -->
<svg version="1.1" id="Слой_1" xmlns="http://www.w3.org/2000/svg" xmlns:xlink="http://www.w3.org/1999/xlink" x="0px" y="0px"
	 viewBox="0 0 205 71.5" style="enable-background:new 0 0 205 71.5;" xml:space="preserve">
<style type="text/css">
	.st0{fill:#DA1F26;}
	.st1{fill:#BCBCBE;}
</style>
<g>
	<g>
		<g>
			<rect x="79.9" y="38.4" width="9.6" height="4.2"/>
			<path d="M79.1,45.9C78,45.9,77,45,77,43.8v-8.4c0-1.2,1-2.1,2.1-2.1h8.8l3.4-4.3H76.2c-2,0-3.6,1.6-3.6,3.6v14.3
				c0,2,1.6,3.6,3.6,3.6h17.1l-3.4-4.6H79.1z"/>
			<path d="M99.9,45.9c-1.2,0-2.1-0.9-2.1-2.1v-8.4c0-1.2,0.9-2.1,2.1-2.1h8.8l3.4-4.3H96.9c-2,0-3.6,1.6-3.6,3.6v14.3
				c0,2,1.6,3.6,3.6,3.6h16.6l-3.4-4.6H99.9z"/>
			<path d="M198.1,37.7h-7.7c-1.2,0-2.1-0.9-2.1-2.1v-0.1c0-1.2,1-2.1,2.1-2.1h8.1l3.4-4.3h-14.5c-2,0-3.6,1.6-3.6,3.6v5.6
				c0,2,1.6,3.6,3.6,3.6h7.7c1.2,0,2.1,0.9,2.1,2.1v0.1c0,1.2-0.9,2.1-2.1,2.1h-22.7c-1.2,0-2.1-0.8-2.1-2v-8.8
				c0-1.2,0.9-2.1,2.1-2.1h8.3l3.4-4.3h-14.7c-2,0-3.6,1.6-3.6,3.6v14.3c0,2,1.6,3.6,3.6,3.6h28.6c2,0,3.6-1.6,3.6-3.6v-5.6
				C201.7,39.3,200.1,37.7,198.1,37.7z"/>
			<path d="M129.6,29h-12.2v-9.1c0-2-1.2-3.6-3.2-3.6H113v30.6c0,2,1.6,3.6,3.6,3.6h0.8V35.4c0-1.2,1-2.1,2.1-2.1h7.1
				c1,0,1.8,0.7,2.1,1.6v12c0,2,1.2,3.6,3.2,3.6h1.3V32.6C133.1,30.6,131.6,29,129.6,29z"/>
			<path d="M159.4,45.9h-1.5c-1,0-1.8-0.7-2.1-1.6V32.6c0-2-1.6-3.6-3.6-3.6h-16.6v17.9c0,2,1.2,3.6,3.2,3.6h1.3V35.4
				c0-1.2,1-2.1,2.1-2.1h7.1c1,0,1.8,0.7,2,1.6v12c0,2,1.6,3.6,3.6,3.6h8.9V36.3h-4.4V45.9z"/>
			<path d="M65.1,17.3H55l5.1,4.9h5v24.7c0,2,1.6,3.6,3.6,3.6h0.8V7.1h-4.4V17.3z"/>
			<path d="M12.4,22.2v21.6v3.6c0,1.3,0.9,2.5,2.1,2.9c0.2,0.1,0.3,0.1,0.5,0.1c0.2,0,0.4,0.1,0.5,0.1v0h0h3.1V30.9l15.2,19.6h8.6
				L25.5,29.1"/>
			<rect x="51" y="38.4" width="9.6" height="4.2"/>
			<path d="M50.2,45.9c-1.2,0-2.1-0.9-2.1-2.1v-8.4c0-1.2,1-2.1,2.1-2.1h10.4V29H46.9c-2,0-3.6,1.6-3.6,3.6v14.3
				c0,2,1.6,3.6,3.6,3.6h18.9l-3.4-4.6H50.2z"/>
		</g>
		<path d="M38.9,4h-37l6.6,8.7l23.7,0v9l-19.8,0.8l13.1,6.9h13.4c1.7,0,3.1-1.4,3.1-3.1V7.1C42,5.4,40.6,4,38.9,4z"/>
		<g>
			<path class="st0" d="M21.4,26.8h14.2c1.5,0,2.6-1.2,2.6-2.6v-2.5h-3.2V9.2H5.8l2.1,2.7h24.3v9.8H11.3v21.6v3.6
				c0,1.3,0.9,2.5,2.1,2.9c0.2,0.1,0.3,0.1,0.5,0.1c0.2,0,0.4,0.1,0.5,0.1h3.1V29.8l15.7,20.2h7L21.4,26.8z"/>
			<rect x="49.8" y="37.8" class="st0" width="9.6" height="4.2"/>
			<path class="st0" d="M49,32.7h10.4v-4.3H45.6c-2,0-3.6,1.6-3.6,3.6v14.3c0,2,1.6,3.6,3.6,3.6h18.9l-3.4-4.6H49
				c-1.2,0-2.1-0.9-2.1-2.1v-8.4C46.9,33.7,47.9,32.7,49,32.7z"/>
		</g>
		<path class="st1" d="M35.1,21.7h3.2v-13c0-1.5-1.2-2.6-2.6-2.6H3.4l2.4,3.1h29.3V21.7z"/>
		<rect x="159.4" y="29" class="st0" width="4.4" height="4.3"/>
	</g>
	<g>
		<path d="M78.9,57.5h3c0.7,0,1.3,0.1,1.7,0.2c0.4,0.1,0.7,0.4,0.9,0.7c0.3,0.3,0.4,0.7,0.4,1.2c0,0.4-0.1,0.7-0.2,1
			c-0.2,0.3-0.4,0.5-0.7,0.7c0.4,0.1,0.7,0.3,0.9,0.7c0.2,0.3,0.4,0.7,0.4,1.2c0,0.7-0.3,1.3-0.8,1.6c-0.5,0.4-1.2,0.5-2.1,0.5h-3.5
			V57.5z M80.2,60.7h1.4c0.6,0,0.9,0,1.1-0.1c0.2-0.1,0.4-0.2,0.6-0.4c0.2-0.2,0.2-0.4,0.2-0.6c0-0.4-0.1-0.7-0.4-0.9
			c-0.3-0.2-0.8-0.2-1.5-0.2h-1.4V60.7z M80.2,64.1H82c0.7,0,1.3-0.1,1.5-0.3c0.3-0.2,0.4-0.5,0.4-0.9c0-0.2-0.1-0.5-0.2-0.7
			c-0.2-0.2-0.4-0.3-0.6-0.4c-0.3-0.1-0.7-0.1-1.2-0.1h-1.6V64.1z"/>
		<path d="M86.8,68.1V57.5H88v1c0.3-0.4,0.6-0.7,1-0.9c0.4-0.2,0.8-0.3,1.3-0.3c0.7,0,1.2,0.2,1.7,0.5c0.5,0.3,0.9,0.8,1.1,1.4
			c0.3,0.6,0.4,1.3,0.4,2c0,0.8-0.1,1.5-0.4,2.1c-0.3,0.6-0.7,1.1-1.2,1.5c-0.5,0.3-1.1,0.5-1.7,0.5c-0.4,0-0.8-0.1-1.2-0.3
			c-0.3-0.2-0.6-0.4-0.9-0.7v3.8H86.8z M88,61.4c0,1,0.2,1.7,0.6,2.2c0.4,0.5,0.9,0.7,1.5,0.7c0.6,0,1.1-0.2,1.5-0.7
			c0.4-0.5,0.6-1.3,0.6-2.3c0-1-0.2-1.7-0.6-2.2c-0.4-0.5-0.9-0.7-1.5-0.7c-0.6,0-1.1,0.3-1.5,0.8C88.2,59.6,88,60.4,88,61.4z"/>
		<path d="M100.4,62.7l1.4,0.2c-0.2,0.8-0.6,1.4-1.2,1.8c-0.6,0.4-1.3,0.7-2.2,0.7c-1.1,0-2-0.3-2.7-1c-0.7-0.7-1-1.7-1-2.9
			c0-1.3,0.3-2.3,1-3c0.7-0.7,1.5-1.1,2.6-1.1c1,0,1.9,0.4,2.5,1.1c0.7,0.7,1,1.7,1,3c0,0.1,0,0.2,0,0.3H96c0,0.8,0.3,1.5,0.7,1.9
			c0.4,0.4,1,0.7,1.6,0.7c0.5,0,0.9-0.1,1.2-0.4C99.9,63.6,100.2,63.2,100.4,62.7z M96.1,60.6h4.3c-0.1-0.6-0.2-1.1-0.5-1.5
			c-0.4-0.5-1-0.8-1.6-0.8c-0.6,0-1.1,0.2-1.5,0.6C96.4,59.4,96.2,59.9,96.1,60.6z"/>
		<path d="M103.4,57.5h2l2,6.2l2.3-6.2h1.9v7.7h-1.3V59l-2.3,6.2h-1.2l-2.2-6.5v6.5h-1.3V57.5z"/>
		<path d="M119.7,57.5v7.7h-1.3v-3h-0.8c-0.5,0-0.8,0.1-1,0.2c-0.2,0.1-0.6,0.5-1,1.1l-1.1,1.7h-1.6l1.4-2.1c0.4-0.6,0.9-1,1.3-1.1
			c-0.7-0.1-1.3-0.4-1.7-0.8c-0.4-0.4-0.5-0.9-0.5-1.5c0-0.7,0.2-1.2,0.7-1.6c0.5-0.4,1.2-0.6,2.1-0.6H119.7z M118.4,58.5h-1.9
			c-0.8,0-1.3,0.1-1.5,0.4c-0.2,0.2-0.3,0.5-0.3,0.9c0,0.5,0.2,0.8,0.5,1c0.3,0.2,0.9,0.3,1.8,0.3h1.4V58.5z"/>
		<path d="M130.5,60.7c-0.1-0.7-0.3-1.2-0.7-1.7c-0.4-0.4-0.8-0.6-1.4-0.6c-1,0-1.6,0.5-1.8,1.6l-1.3-0.2c0.1-0.7,0.4-1.3,1-1.8
			c0.5-0.5,1.2-0.7,2.1-0.7c1.1,0,1.9,0.4,2.6,1.1c0.6,0.7,0.9,1.7,0.9,3c0,1.2-0.3,2.2-0.9,3c-0.6,0.8-1.4,1.1-2.5,1
			c-0.9,0-1.7-0.3-2.2-0.8c-0.6-0.5-0.9-1.2-1.1-2l1.3-0.2c0.2,1.3,0.9,1.9,2,1.9c0.6,0,1.1-0.2,1.5-0.6c0.4-0.4,0.6-1,0.7-1.9h-2.7
			v-1.1H130.5z"/>
		<path d="M133.4,57.5h1.3v3.3c0.4,0,0.7-0.1,0.9-0.2c0.2-0.2,0.4-0.6,0.7-1.4c0.3-0.6,0.5-1,0.6-1.2c0.2-0.2,0.3-0.3,0.6-0.4
			c0.2-0.1,0.5-0.1,1-0.1h0.3v1.1l-0.4,0c-0.3,0-0.6,0.1-0.7,0.2c-0.1,0.1-0.3,0.4-0.5,1c-0.2,0.5-0.4,0.9-0.5,1
			c-0.2,0.2-0.4,0.4-0.8,0.5c0.6,0.2,1.1,0.7,1.7,1.6l1.4,2.4h-1.4l-1.4-2.4c-0.3-0.5-0.5-0.8-0.7-0.9c-0.2-0.2-0.5-0.2-0.8-0.2v3.6
			h-1.3V57.5z"/>
		<path d="M139.5,61.3c0-1.4,0.4-2.5,1.2-3.2c0.7-0.6,1.5-0.9,2.4-0.9c1.1,0,1.9,0.3,2.6,1c0.7,0.7,1,1.7,1,2.9c0,1-0.1,1.8-0.4,2.3
			c-0.3,0.6-0.7,1-1.3,1.3c-0.6,0.3-1.2,0.5-1.9,0.5c-1.1,0-2-0.3-2.6-1C139.8,63.6,139.5,62.6,139.5,61.3z M140.8,61.3
			c0,1,0.2,1.7,0.6,2.2c0.4,0.5,1,0.7,1.6,0.7c0.6,0,1.2-0.2,1.6-0.7c0.4-0.5,0.6-1.2,0.6-2.3c0-1-0.2-1.7-0.7-2.2
			c-0.4-0.5-1-0.7-1.6-0.7c-0.7,0-1.2,0.2-1.6,0.7C141,59.6,140.8,60.3,140.8,61.3z"/>
		<path d="M148.2,57.5h1.3v3.2h3.6v-3.2h1.3v7.7h-1.3v-3.4h-3.6v3.4h-1.3V57.5z"/>
		<path d="M156,61.3c0-1.4,0.4-2.5,1.2-3.2c0.7-0.6,1.5-0.9,2.4-0.9c1.1,0,1.9,0.3,2.6,1c0.7,0.7,1,1.7,1,2.9c0,1-0.1,1.8-0.4,2.3
			c-0.3,0.6-0.7,1-1.3,1.3c-0.6,0.3-1.2,0.5-1.9,0.5c-1.1,0-2-0.3-2.6-1C156.3,63.6,156,62.6,156,61.3z M157.3,61.3
			c0,1,0.2,1.7,0.6,2.2c0.4,0.5,1,0.7,1.6,0.7c0.6,0,1.2-0.2,1.6-0.7c0.4-0.5,0.6-1.2,0.6-2.3c0-1-0.2-1.7-0.6-2.2
			c-0.4-0.5-1-0.7-1.6-0.7c-0.7,0-1.2,0.2-1.6,0.7C157.5,59.6,157.3,60.3,157.3,61.3z"/>
		<path d="M164.8,57.5h2l2,6.2l2.3-6.2h1.9v7.7h-1.3V59l-2.3,6.2h-1.2l-2.2-6.5v6.5h-1.3V57.5z"/>
		<path d="M175,57.5h1.3v5.9l3.6-5.9h1.4v7.7H180v-5.9l-3.6,5.9H175V57.5z"/>
		<path d="M182.6,57.5h6.3v1.1h-2.5v6.6H185v-6.6h-2.5V57.5z"/>
		<path d="M190.1,57.5h1.3v3h1.7c1.1,0,1.9,0.2,2.5,0.6c0.6,0.4,0.9,1,0.9,1.7c0,0.6-0.2,1.2-0.7,1.7c-0.5,0.5-1.3,0.7-2.3,0.7h-3.3
			V57.5z M191.4,64.1h1.4c0.8,0,1.4-0.1,1.8-0.3c0.4-0.2,0.5-0.5,0.5-1c0-0.3-0.1-0.6-0.4-0.9c-0.3-0.3-0.8-0.4-1.7-0.4h-1.5V64.1z"
			/>
	</g>
</g>
</svg>
